<?xml version="1.0" encoding="UTF-8" standalone="no"?>
<!-- Created with Inkscape (http://www.inkscape.org/) -->

<svg
   xmlns:dc="http://purl.org/dc/elements/1.1/"
   xmlns:cc="http://creativecommons.org/ns#"
   xmlns:rdf="http://www.w3.org/1999/02/22-rdf-syntax-ns#"
   xmlns:svg="http://www.w3.org/2000/svg"
   xmlns="http://www.w3.org/2000/svg"
   xmlns:sodipodi="http://sodipodi.sourceforge.net/DTD/sodipodi-0.dtd"
   xmlns:inkscape="http://www.inkscape.org/namespaces/inkscape"
   width="99.624168mm"
   height="93.504807mm"
   viewBox="0 0 352.99902 331.31624"
   id="svg2"
   version="1.1"
   inkscape:version="0.91 r13725"
   sodipodi:docname="carandframe.svg">
  <defs
     id="defs4" />
  <sodipodi:namedview
     id="base"
     pagecolor="#ffffff"
     bordercolor="#666666"
     borderopacity="1.0"
     inkscape:pageopacity="0.0"
     inkscape:pageshadow="2"
     inkscape:zoom="1.4142136"
     inkscape:cx="120.22582"
     inkscape:cy="125.70648"
     inkscape:document-units="px"
     inkscape:current-layer="layer1"
     showgrid="false"
     inkscape:window-width="1319"
     inkscape:window-height="744"
     inkscape:window-x="47"
     inkscape:window-y="24"
     inkscape:window-maximized="1"
     showguides="false"
     fit-margin-top="0"
     fit-margin-left="0"
     fit-margin-right="0"
     fit-margin-bottom="0" />
  <metadata
     id="metadata7">
    <rdf:RDF>
      <cc:Work
         rdf:about="">
        <dc:format>image/svg+xml</dc:format>
        <dc:type
           rdf:resource="http://purl.org/dc/dcmitype/StillImage" />
        <dc:title></dc:title>
      </cc:Work>
    </rdf:RDF>
  </metadata>
  <g
     inkscape:label="Layer 1"
     inkscape:groupmode="layer"
     id="layer1"
     transform="translate(-148.25403,-614.64339)">
    <path
       inkscape:connector-curvature="0"
       style="opacity:1;fill:#b3b3b3;fill-opacity:1;stroke:none;stroke-width:5;stroke-miterlimit:4;stroke-dasharray:none;stroke-dashoffset:0;stroke-opacity:1"
       d="m 281.46482,795.81482 c 14.07827,-24.72365 45.00832,-32.1946 69.39259,-17.92039 7.73907,4.54848 12.91157,9.83149 17.37254,17.69295 l 133.02311,-77.55702 c -1.58901,-2.93488 -3.24809,-5.83019 -4.97577,-8.68338 -2.79273,-4.28815 -5.74218,-8.46923 -8.8422,-12.53454 -0.99551,-1.43314 -2.00896,-2.85339 -3.04009,-4.2604 -3.20154,-3.98646 -6.54862,-7.85046 -10.03426,-11.58393 -1.12887,-1.32162 -2.27424,-2.62867 -3.43581,-3.92083 -3.6219,-3.6893 -7.37994,-7.23859 -11.26608,-10.64028 -1.20435,-1.15238 -2.4225,-2.28984 -3.65418,-3.41213 -3.96865,-3.30601 -8.05909,-6.4588 -12.26257,-9.45162 -1.31555,-1.0284 -2.64343,-2.04045 -3.98337,-3.03595 -4.98688,-3.41664 -10.12052,-6.60773 -15.38583,-9.56389 -2.54817,-1.39436 -5.12533,-2.73353 -7.72975,-4.01661 -3.45803,-1.81973 -6.96679,-3.5386 -10.52196,-5.15448 -2.67997,-1.13236 -5.38349,-2.20657 -8.1087,-3.22188 -3.61356,-1.45724 -7.26749,-2.80937 -10.95732,-4.05472 -2.77493,-0.85532 -5.56755,-1.65052 -8.37594,-2.38506 -3.74007,-1.08481 -7.50999,-2.06087 -11.30513,-2.92699 -2.85665,-0.57207 -5.72507,-1.08204 -8.60326,-1.52955 -3.81659,-0.69812 -7.65204,-1.2857 -11.50168,-1.76201 -2.89919,-0.2802 -5.80397,-0.4974 -8.71234,-0.65144 -3.87153,-0.30878 -7.75096,-0.50536 -11.63356,-0.58949 -4.76183,-0.0419 -9.52364,0.0853 -14.27668,0.38135 -3.80868,0.26755 -7.60919,0.64351 -11.39705,1.12743 -2.95499,0.31405 -5.90285,0.69354 -8.84148,1.1382 -3.77167,0.65326 -7.52446,1.41403 -11.25391,2.28142 -2.9036,0.61114 -5.79371,1.28642 -8.66826,2.02536 -3.67875,1.02847 -7.32831,2.16144 -10.94435,3.39758 -2.8423,0.90531 -5.66468,1.87365 -8.46513,2.90435 -3.569,1.39949 -7.09844,2.90057 -10.58412,4.50145 -2.71869,1.18091 -5.41172,2.42164 -8.07718,3.72133 -3.42179,1.7576 -6.79397,3.61276 -10.11254,5.56325 -2.58906,1.44962 -5.14671,2.95618 -7.67114,4.5186 -3.23226,2.09645 -6.40551,4.28498 -9.51596,6.56299 -2.43038,1.70238 -4.824,3.45811 -7.17915,5.26593 -2.99861,2.4045 -5.92992,4.89404 -8.79047,7.46565 -2.26984,1.95605 -4.49713,3.96229 -6.68027,6.01728 -2.73506,2.68529 -5.39541,5.44772 -7.97792,8.28405 -2.06762,2.17733 -4.08791,4.40036 -6.05941,6.6675 -2.46407,2.95627 -4.84577,5.98213 -7.14228,9.07398 -1.83733,2.37027 -3.62331,4.781 -5.35666,7.23046 -3.43056,4.90126 -6.6487,9.95186 -9.64524,15.13741 z"
       id="path4438-3"
       inkscape:export-xdpi="90"
       inkscape:export-ydpi="90"
       sodipodi:nodetypes="ccccccccccccccccccccccccccccccccccccccccccccc" />
    <path
       inkscape:connector-curvature="0"
       style="opacity:1;fill:#ececec;fill-opacity:1;stroke:none;stroke-width:5;stroke-miterlimit:4;stroke-dasharray:none;stroke-dashoffset:0;stroke-opacity:1"
       d="m 281.6442,792.48214 a 50,50 0 0 1 68.30127,-18.30127 50,50 0 0 1 18.26387,18.32309 l 129.72553,-74.89825 a 200,200 0 0 0 -4.87994,-8.39925 199.97363,199.97363 0 0 0 -8.6719,-12.12437 200,200 0 0 0 -2.98153,-4.12099 199.97363,199.97363 0 0 0 -9.841,-11.20488 200,200 0 0 0 -3.36964,-3.79253 199.97363,199.97363 0 0 0 -11.04909,-10.2921 200,200 0 0 0 -3.58381,-3.30048 199.97363,199.97363 0 0 0 -12.02639,-9.14234 200,200 0 0 0 -3.90665,-2.9366 199.97363,199.97363 0 0 0 -15.0895,-9.25094 200,200 0 0 0 -7.58087,-3.88517 199.97363,199.97363 0 0 0 -10.31931,-4.98582 200,200 0 0 0 -7.95252,-3.11645 199.97363,199.97363 0 0 0 -10.74629,-3.92204 200,200 0 0 0 -8.21462,-2.30701 199.97363,199.97363 0 0 0 -11.08739,-2.83121 200,200 0 0 0 -8.43756,-1.4795 199.97363,199.97363 0 0 0 -11.28016,-1.70435 200,200 0 0 0 -8.54454,-0.63013 199.97363,199.97363 0 0 0 -11.40949,-0.5702 200,200 0 0 0 -14.00172,0.36887 199.97363,199.97363 0 0 0 -11.17754,1.09054 200,200 0 0 0 -8.67119,1.10096 199.97363,199.97363 0 0 0 -11.03716,2.20676 200,200 0 0 0 -8.50131,1.95909 199.97363,199.97363 0 0 0 -10.73356,3.2864 200,200 0 0 0 -8.30209,2.80931 199.97363,199.97363 0 0 0 -10.38027,4.35415 200,200 0 0 0 -7.92162,3.59956 199.97363,199.97363 0 0 0 -9.91777,5.38121 200,200 0 0 0 -7.52339,4.37074 199.97363,199.97363 0 0 0 -9.33267,6.34823 200,200 0 0 0 -7.04088,5.09362 199.97363,199.97363 0 0 0 -8.62117,7.22135 200,200 0 0 0 -6.55161,5.82038 199.97363,199.97363 0 0 0 -7.82426,8.01297 200,200 0 0 0 -5.94271,6.44933 199.97363,199.97363 0 0 0 -7.00472,8.77705 200,200 0 0 0 -5.25349,6.99386 199.97363,199.97363 0 0 0 -9.45947,14.64208 l 129.88013,74.98633 z"
       id="path4438"
       inkscape:export-xdpi="90"
       inkscape:export-ydpi="90" />
    <g
       id="g5775"
       inkscape:export-xdpi="90"
       inkscape:export-ydpi="90">
      <path
         id="path5287"
         d="m 360.68861,651.54925 6.26052,-29.45683 a 199.97363,199.97363 0 0 0 -0.39564,-0.0999 200,200 0 0 0 -1.5691,-0.27443 l -6.24045,29.35566 a 170,170 0 0 1 1.94467,0.47548 z"
         style="opacity:1;fill:#b3b3b3;fill-opacity:1;stroke:none;stroke-width:3;stroke-miterlimit:4;stroke-dasharray:none;stroke-dashoffset:0;stroke-opacity:1"
         inkscape:connector-curvature="0" />
      <path
         id="path5224"
         d="m 289.67724,651.3961 -6.22971,-29.31138 a 199.97363,199.97363 0 0 0 -1.45339,0.29079 200,200 0 0 0 -0.50491,0.1167 l 6.21882,29.25996 a 170,170 0 0 1 1.96919,-0.35607 z"
         style="opacity:1;fill:#b3b3b3;fill-opacity:1;stroke:none;stroke-width:3;stroke-miterlimit:4;stroke-dasharray:none;stroke-dashoffset:0;stroke-opacity:1"
         inkscape:connector-curvature="0" />
      <path
         id="path5152"
         d="m 425.55497,680.6779 17.56765,-24.17808 a 199.97363,199.97363 0 0 0 -1.59326,-1.21305 l -17.56401,24.17567 a 170,170 0 0 1 0.77688,0.55673 170,170 0 0 1 0.81276,0.65869 z"
         style="opacity:1;fill:#b3b3b3;fill-opacity:1;stroke:none;stroke-width:3;stroke-miterlimit:4;stroke-dasharray:none;stroke-dashoffset:0;stroke-opacity:1"
         inkscape:connector-curvature="0" />
      <path
         id="path4440-6-1-8-7-9"
         d="m 224.88168,680.14484 -17.56121,-24.16903 a 200,200 0 0 0 -1.61914,1.17162 l 17.52727,24.12236 a 170,170 0 0 1 1.65308,-1.12495 z"
         style="opacity:1;fill:#b3b3b3;fill-opacity:1;stroke:none;stroke-width:3;stroke-miterlimit:4;stroke-dasharray:none;stroke-dashoffset:0;stroke-opacity:1"
         inkscape:connector-curvature="0" />
      <path
         id="path5292"
         d="m 354.45903,680.85481 6.23082,-29.31161 a 170,170 0 0 0 -1.97289,-0.34068 l -6.20259,29.1768 a 140,140 0 0 1 1.94466,0.47549 z"
         style="opacity:1;fill:#b3b3b3;fill-opacity:1;stroke:none;stroke-width:3;stroke-miterlimit:4;stroke-dasharray:none;stroke-dashoffset:0;stroke-opacity:1"
         inkscape:connector-curvature="0" />
      <path
         id="path5229"
         d="m 295.90723,680.70311 -6.20601,-29.1962 a 170,170 0 0 0 -1.9505,0.45258 l 6.18633,29.10138 a 140,140 0 0 1 1.97018,-0.35776 z"
         style="opacity:1;fill:#b3b3b3;fill-opacity:1;stroke:none;stroke-width:3;stroke-miterlimit:4;stroke-dasharray:none;stroke-dashoffset:0;stroke-opacity:1"
         inkscape:connector-curvature="0" />
      <path
         id="path5157"
         d="m 407.93464,704.93156 17.61935,-24.25197 a 170,170 0 0 0 -1.65348,-1.12829 l -17.545,24.15056 a 140,140 0 0 1 1.57913,1.2297 z"
         style="opacity:1;fill:#b3b3b3;fill-opacity:1;stroke:none;stroke-width:3;stroke-miterlimit:4;stroke-dasharray:none;stroke-dashoffset:0;stroke-opacity:1"
         inkscape:connector-curvature="0" />
      <path
         id="path4440-6-1-8-7"
         d="M 242.5026,704.39796 224.93417,680.218 a 170,170 0 0 0 -1.61914,1.17161 l 17.53448,24.1333 a 140,140 0 0 1 1.65309,-1.12495 z"
         style="opacity:1;fill:#b3b3b3;fill-opacity:1;stroke:none;stroke-width:3;stroke-miterlimit:4;stroke-dasharray:none;stroke-dashoffset:0;stroke-opacity:1"
         inkscape:connector-curvature="0" />
      <path
         id="path5297"
         d="m 348.23045,710.15868 6.23107,-29.31597 a 140,140 0 0 0 -1.97289,-0.34068 l -6.20188,29.17946 a 110,110 0 0 1 1.9437,0.47719 z"
         style="opacity:1;fill:#b3b3b3;fill-opacity:1;stroke:none;stroke-width:3;stroke-miterlimit:4;stroke-dasharray:none;stroke-dashoffset:0;stroke-opacity:1"
         inkscape:connector-curvature="0" />
      <path
         id="path5234"
         d="m 302.1365,710.00745 -6.21004,-29.21655 a 140,140 0 0 0 -1.95049,0.45257 l 6.19106,29.12442 a 110,110 0 0 1 1.96947,-0.36044 z"
         style="opacity:1;fill:#b3b3b3;fill-opacity:1;stroke:none;stroke-width:3;stroke-miterlimit:4;stroke-dasharray:none;stroke-dashoffset:0;stroke-opacity:1"
         inkscape:connector-curvature="0" />
      <path
         id="path5162"
         d="m 390.3097,729.18933 17.62787,-24.26284 a 140,140 0 0 0 -1.65347,-1.12829 l -17.56206,24.17228 a 110,110 0 0 1 1.58766,1.21885 z"
         style="opacity:1;fill:#b3b3b3;fill-opacity:1;stroke:none;stroke-width:3;stroke-miterlimit:4;stroke-dasharray:none;stroke-dashoffset:0;stroke-opacity:1"
         inkscape:connector-curvature="0" />
      <path
         id="path4440-6-1-8"
         d="m 260.12182,728.6501 -17.57636,-24.19357 a 140,140 0 0 0 -1.62012,1.17332 l 17.54821,24.15249 a 110,110 0 0 1 1.64827,-1.13224 z"
         style="opacity:1;fill:#b3b3b3;fill-opacity:1;stroke:none;stroke-width:3;stroke-miterlimit:4;stroke-dasharray:none;stroke-dashoffset:0;stroke-opacity:1"
         inkscape:connector-curvature="0" />
      <path
         id="path5302"
         d="m 342.00186,739.46253 6.2323,-29.32201 a 110,110 0 0 0 -1.97289,-0.34068 l -6.20461,29.19592 a 80,80 0 0 1 1.9452,0.46677 z"
         style="opacity:1;fill:#b3b3b3;fill-opacity:1;stroke:none;stroke-width:3;stroke-miterlimit:4;stroke-dasharray:none;stroke-dashoffset:0;stroke-opacity:1"
         inkscape:connector-curvature="0" />
      <path
         id="path5239"
         d="m 308.36408,739.31082 -6.21505,-29.23523 a 110,110 0 0 0 -1.94782,0.45185 l 6.19814,29.16685 a 80,80 0 0 1 1.96473,-0.38347 z"
         style="opacity:1;fill:#b3b3b3;fill-opacity:1;stroke:none;stroke-width:3;stroke-miterlimit:4;stroke-dasharray:none;stroke-dashoffset:0;stroke-opacity:1"
         inkscape:connector-curvature="0" />
      <path
         id="path5167"
         d="m 372.68378,753.44879 17.63835,-24.27709 a 110,110 0 0 0 -1.65347,-1.12829 l -17.58035,24.20007 a 80,80 0 0 1 1.59547,1.20531 z"
         style="opacity:1;fill:#b3b3b3;fill-opacity:1;stroke:none;stroke-width:3;stroke-miterlimit:4;stroke-dasharray:none;stroke-dashoffset:0;stroke-opacity:1"
         inkscape:connector-curvature="0" />
      <path
         id="path4440-6-1"
         d="m 277.74202,752.90055 -17.58624,-24.20379 a 110,110 0 0 0 -1.61915,1.17162 l 17.58937,24.2101 a 80,80 0 0 1 1.61602,-1.17793 z"
         style="opacity:1;fill:#b3b3b3;fill-opacity:1;stroke:none;stroke-width:3;stroke-miterlimit:4;stroke-dasharray:none;stroke-dashoffset:0;stroke-opacity:1"
         inkscape:connector-curvature="0" />
      <path
         id="path5307"
         d="m 335.77228,768.76809 6.23427,-29.3254 a 80,80 0 0 0 -1.97289,-0.34068 l -6.21843,29.25111 a 50,50 0 0 1 1.95705,0.41497 z"
         style="opacity:1;fill:#b3b3b3;fill-opacity:1;stroke:none;stroke-width:3;stroke-miterlimit:4;stroke-dasharray:none;stroke-dashoffset:0;stroke-opacity:1"
         inkscape:connector-curvature="0" />
      <path
         id="path5244"
         d="m 314.59308,768.61952 -6.2181,-29.25729 a 80,80 0 0 0 -1.94951,0.45088 l 6.2162,29.24493 a 50,50 0 0 1 1.95141,-0.43852 z"
         style="opacity:1;fill:#b3b3b3;fill-opacity:1;stroke:none;stroke-width:3;stroke-miterlimit:4;stroke-dasharray:none;stroke-dashoffset:0;stroke-opacity:1"
         inkscape:connector-curvature="0" />
      <path
         id="path5172"
         d="m 355.06248,777.70415 17.6459,-24.28626 a 80,80 0 0 0 -1.65516,-1.12926 l -17.59643,24.22009 a 50,50 0 0 1 1.60569,1.19543 z"
         style="opacity:1;fill:#b3b3b3;fill-opacity:1;stroke:none;stroke-width:3;stroke-miterlimit:4;stroke-dasharray:none;stroke-dashoffset:0;stroke-opacity:1"
         inkscape:connector-curvature="0" />
      <path
         id="path4440-6"
         d="m 295.36294,777.15367 -17.59419,-24.21739 a 80,80 0 0 0 -1.62011,1.17331 l 17.63223,24.26867 a 50,50 0 0 1 1.58207,-1.22459 z"
         style="opacity:1;fill:#b3b3b3;fill-opacity:1;stroke:none;stroke-width:3;stroke-miterlimit:4;stroke-dasharray:none;stroke-dashoffset:0;stroke-opacity:1"
         inkscape:connector-curvature="0" />
    </g>
    <rect
       style="opacity:1;fill:#999999;fill-opacity:0;stroke:none;stroke-width:5.93738937;stroke-miterlimit:4;stroke-dasharray:none;stroke-dashoffset:0;stroke-opacity:1"
       id="rect5722"
       width="352.96899"
       height="180.819"
       x="148.25403"
       y="615.10187"
       inkscape:export-xdpi="90"
       inkscape:export-ydpi="90" />
    <rect
       style="opacity:0.99800002;fill:#000000;fill-opacity:1;fill-rule:nonzero;stroke:#ffffff;stroke-width:0;stroke-miterlimit:4;stroke-dasharray:none;stroke-opacity:0.77287065"
       id="rect4136"
       width="90.998238"
       height="167.7744"
       x="279.19043"
       y="770.66132"
       ry="36.852119"
       rx="41.124119" />
    <rect
       style="opacity:0.99800002;fill:#000000;fill-opacity:1;fill-rule:nonzero;stroke:#ffffff;stroke-width:0;stroke-miterlimit:4;stroke-dasharray:none;stroke-opacity:0.77287065"
       id="rect4138"
       width="91.156082"
       height="126.76005"
       x="279.3667"
       y="819.19958"
       rx="13.326321"
       ry="15.641875" />
    <path
       style="fill:none;fill-rule:evenodd;stroke:#000000;stroke-width:0.42179817px;stroke-linecap:butt;stroke-linejoin:miter;stroke-opacity:1"
       d="m 299.2571,825.90329 c 22.74956,-10.05497 54.9781,-3.16013 54.9781,-3.16013 l -10.11092,28.15392 -35.3882,-0.28728 z"
       id="path4142"
       inkscape:connector-curvature="0" />
    <path
       style="opacity:0.99800002;fill:none;fill-opacity:1;fill-rule:nonzero;stroke:#ffffff;stroke-width:0;stroke-miterlimit:4;stroke-dasharray:none;stroke-opacity:0.77287065"
       d="m 289.8419,945.4577 c -4.33831,-1.21809 -8.00114,-5.08035 -9.70149,-10.2297 -0.53661,-1.62505 -0.57028,-5.55596 -0.65037,-75.9137 l -0.0845,-74.19992 0.67443,-1.42544 c 0.44291,-0.9361 1.39772,-2.04264 2.7814,-3.22336 7.70128,-6.57166 27.84154,-10.53772 48.1071,-9.47335 19.42996,1.02049 34.10064,5.71348 38.03108,12.16575 l 0.93973,1.54265 0.23548,33.89962 c 0.12952,18.64479 0.19664,52.19248 0.14916,74.55043 -0.0957,45.05268 0.072,41.51759 -2.16618,45.66528 -1.22306,2.2665 -4.18778,5.05911 -6.43358,6.06007 l -1.57984,0.70415 -34.75627,0.0496 c -19.11594,0.0273 -35.11173,-0.0501 -35.54618,-0.17213 z"
       id="path4144"
       inkscape:connector-curvature="0" />
    <path
       sodipodi:nodetypes="ssscsssscsssscss"
       style="opacity:0.99800002;fill:none;fill-opacity:1;fill-rule:nonzero;stroke:#ffffff;stroke-width:0;stroke-miterlimit:4;stroke-dasharray:none;stroke-opacity:0.77287065"
       d="m 289.8419,945.4577 c -4.33831,-1.21809 -8.00114,-5.08035 -9.70149,-10.2297 -0.53661,-1.62505 -0.57028,-5.55596 -0.65037,-75.9137 l -0.0845,-74.19992 0.67443,-1.42544 c 0.44291,-0.9361 1.39772,-2.04264 2.7814,-3.22336 7.70128,-6.57166 23.96654,-10.53772 44.2321,-9.47335 19.42996,1.02049 37.97564,5.71348 41.90608,12.16575 l 0.93973,1.54265 0.23548,33.89962 c 0.12952,18.64479 0.19664,52.19248 0.14916,74.55043 -0.0957,45.05268 0.072,41.51759 -2.16618,45.66528 -1.22306,2.2665 -4.18778,5.05911 -6.43358,6.06007 l -1.57984,0.70415 -34.75627,0.0496 c -19.11594,0.0273 -35.11173,-0.0501 -35.54618,-0.17213 z"
       id="path4146"
       inkscape:connector-curvature="0" />
    <path
       sodipodi:nodetypes="ssscsssscsssscss"
       style="opacity:0.99800002;fill:none;fill-opacity:1;fill-rule:nonzero;stroke:#ffffff;stroke-width:0;stroke-miterlimit:4;stroke-dasharray:none;stroke-opacity:0.77287065"
       d="m 289.8419,945.4577 c -4.33831,-1.21809 -8.00114,-5.08035 -9.70149,-10.2297 -0.53661,-1.62505 -0.57028,-5.55596 -0.65037,-75.9137 l -0.0845,-74.19992 0.67443,-1.42544 c 0.44291,-0.9361 1.39772,-2.04264 2.7814,-3.22336 7.70128,-6.57166 27.47546,-15.31069 47.74102,-14.24632 19.42996,1.02049 34.46672,10.48645 38.39716,16.93872 l 0.93973,1.54265 0.23548,33.89962 c 0.12952,18.64479 0.19664,52.19248 0.14916,74.55043 -0.0957,45.05268 0.072,41.51759 -2.16618,45.66528 -1.22306,2.2665 -4.18778,5.05911 -6.43358,6.06007 l -1.57984,0.70415 -34.75627,0.0496 c -19.11594,0.0273 -35.11173,-0.0501 -35.54618,-0.17213 z"
       id="path4148"
       inkscape:connector-curvature="0" />
    <path
       style="fill:#ffffff;fill-opacity:1;fill-rule:evenodd;stroke:#000000;stroke-width:0.52625692px;stroke-linecap:butt;stroke-linejoin:miter;stroke-opacity:1"
       d="m 289.58457,814.5886 c 35.26578,-12.39264 70.52828,0.21276 70.52828,0.21276 l -12.00223,31.42754 -46.54295,0.31681 z"
       id="path4152"
       inkscape:connector-curvature="0"
       sodipodi:nodetypes="ccccc" />
    <path
       style="fill:#ffffff;fill-opacity:1;fill-rule:evenodd;stroke:#000000;stroke-width:0.42179817px;stroke-linecap:butt;stroke-linejoin:miter;stroke-opacity:1"
       d="m 285.5512,826.68667 0.18687,45.9242 12.79864,2.08677 -0.0347,-25.63988 z"
       id="path4156"
       inkscape:connector-curvature="0"
       sodipodi:nodetypes="ccccc" />
    <path
       style="fill:#ffffff;fill-opacity:1;fill-rule:evenodd;stroke:#000000;stroke-width:0.42179817px;stroke-linecap:butt;stroke-linejoin:miter;stroke-opacity:1"
       d="m 286.15625,909.81143 -0.38923,-33.58845 12.75913,2.0934 1e-5,24.834 z"
       id="path4156-17"
       inkscape:connector-curvature="0"
       sodipodi:nodetypes="ccccc" />
    <path
       style="fill:#ffffff;fill-opacity:1;fill-rule:evenodd;stroke:#000000;stroke-width:0.42179817px;stroke-linecap:butt;stroke-linejoin:miter;stroke-opacity:1"
       d="m 293.95061,920.81891 60.53189,0.20314 -6.4773,-13.07146 -46.62939,-0.20315 z"
       id="path4152-7"
       inkscape:connector-curvature="0"
       sodipodi:nodetypes="ccccc" />
    <path
       style="fill:#ffffff;fill-opacity:1;fill-rule:evenodd;stroke:#000000;stroke-width:0.42179817px;stroke-linecap:butt;stroke-linejoin:miter;stroke-opacity:1"
       d="m 364.12805,826.5513 -0.0472,46.02577 -12.79864,2.08677 -0.13458,-25.64269 z"
       id="path4156-8"
       inkscape:connector-curvature="0"
       sodipodi:nodetypes="ccccc" />
    <path
       style="fill:#ffffff;fill-opacity:1;fill-rule:evenodd;stroke:#000000;stroke-width:0.42179817px;stroke-linecap:butt;stroke-linejoin:miter;stroke-opacity:1"
       d="m 363.66263,909.77763 0.38924,-33.58845 -12.75914,2.0934 0,24.834 z"
       id="path4156-17-0"
       inkscape:connector-curvature="0"
       sodipodi:nodetypes="ccccc" />
    <path
       style="fill:none;fill-rule:evenodd;stroke:#ffffff;stroke-width:0.45180941px;stroke-linecap:butt;stroke-linejoin:miter;stroke-opacity:1"
       d="m 281.13856,796.30544 c 5.04486,-2.36373 8.72532,-4.33248 12.11375,-8.27035 3.38843,-3.93787 2.08833,-9.63311 2.08833,-9.63311"
       id="path4298"
       inkscape:connector-curvature="0"
       sodipodi:nodetypes="csc" />
    <path
       style="fill:none;fill-rule:evenodd;stroke:#ffffff;stroke-width:0.45180941px;stroke-linecap:butt;stroke-linejoin:miter;stroke-opacity:1"
       d="m 368.04419,796.30544 c -5.04486,-2.36373 -8.72532,-4.33248 -12.11375,-8.27035 -3.38843,-3.93787 -2.08833,-9.63311 -2.08833,-9.63311"
       id="path4298-5"
       inkscape:connector-curvature="0"
       sodipodi:nodetypes="csc" />
  </g>
</svg>
