<?xml version="1.0" encoding="UTF-8" standalone="no"?>
<!-- Created with Inkscape (http://www.inkscape.org/) -->

<svg
   xmlns:dc="http://purl.org/dc/elements/1.1/"
   xmlns:cc="http://creativecommons.org/ns#"
   xmlns:rdf="http://www.w3.org/1999/02/22-rdf-syntax-ns#"
   xmlns:svg="http://www.w3.org/2000/svg"
   xmlns="http://www.w3.org/2000/svg"
   xmlns:sodipodi="http://sodipodi.sourceforge.net/DTD/sodipodi-0.dtd"
   xmlns:inkscape="http://www.inkscape.org/namespaces/inkscape"
   width="99.624168mm"
   height="93.504807mm"
   viewBox="0 0 352.99902 331.31624"
   id="svg2"
   version="1.1"
   inkscape:version="0.91 r13725"
   sodipodi:docname="s35.svg">
  <defs
     id="defs4" />
  <sodipodi:namedview
     id="base"
     pagecolor="#ffffff"
     bordercolor="#666666"
     borderopacity="1.0"
     inkscape:pageopacity="0.0"
     inkscape:pageshadow="2"
     inkscape:zoom="1.4142136"
     inkscape:cx="28.655494"
     inkscape:cy="164.32562"
     inkscape:document-units="px"
     inkscape:current-layer="layer1"
     showgrid="false"
     inkscape:window-width="1319"
     inkscape:window-height="744"
     inkscape:window-x="47"
     inkscape:window-y="24"
     inkscape:window-maximized="1"
     showguides="false"
     fit-margin-top="0"
     fit-margin-left="0"
     fit-margin-right="0"
     fit-margin-bottom="0" />
  <metadata
     id="metadata7">
    <rdf:RDF>
      <cc:Work
         rdf:about="">
        <dc:format>image/svg+xml</dc:format>
        <dc:type
           rdf:resource="http://purl.org/dc/dcmitype/StillImage" />
        <dc:title />
      </cc:Work>
    </rdf:RDF>
  </metadata>
  <g
     inkscape:label="Layer 1"
     inkscape:groupmode="layer"
     id="layer1"
     transform="translate(-148.25403,-614.64339)">
    <path
       style="opacity:1;fill:#ffe400;fill-opacity:0.68627453;stroke:none;stroke-width:3;stroke-miterlimit:4;stroke-dasharray:none;stroke-dashoffset:0;stroke-opacity:1"
       d="m 365.06531,621.71905 a 200,200 0 0 0 -6.86845,-1.20505 199.97363,199.97363 0 0 0 -11.28018,-1.70436 200,200 0 0 0 -8.54452,-0.63013 199.97363,199.97363 0 0 0 -11.40951,-0.5702 200,200 0 0 0 -14.00171,0.36887 199.97363,199.97363 0 0 0 -11.17754,1.09054 200,200 0 0 0 -8.67118,1.10097 199.97363,199.97363 0 0 0 -9.58377,1.91597 l 6.22971,29.31138 a 170,170 0 0 1 69.0667,-0.32233 l 6.24045,-29.35566 z"
       id="path5347"
       inkscape:connector-curvature="0" />
  </g>
</svg>
